<mxfile host="app.diagrams.net" agent="Mozilla/5.0 (Windows NT 10.0; Win64; x64) AppleWebKit/537.36 (KHTML, like Gecko) Chrome/129.0.0.0 Safari/537.36" version="24.7.16">
  <diagram name="Page-1" id="x2M24qX4NptSgSssTpAb">
    <mxGraphModel dx="1434" dy="428" grid="0" gridSize="10" guides="1" tooltips="1" connect="1" arrows="1" fold="1" page="0" pageScale="1" pageWidth="827" pageHeight="1169" math="0" shadow="0">
      <root>
        <mxCell id="0" />
        <mxCell id="1" parent="0" />
        <mxCell id="SzUF8fcwHkSjXErmm0Mm-3" value="" style="edgeStyle=none;curved=1;rounded=0;orthogonalLoop=1;jettySize=auto;html=1;fontSize=12;startSize=8;endSize=8;" edge="1" parent="1" source="SzUF8fcwHkSjXErmm0Mm-1" target="SzUF8fcwHkSjXErmm0Mm-2">
          <mxGeometry relative="1" as="geometry" />
        </mxCell>
        <mxCell id="SzUF8fcwHkSjXErmm0Mm-1" value="Inicio" style="ellipse;whiteSpace=wrap;html=1;aspect=fixed;" vertex="1" parent="1">
          <mxGeometry x="160" y="160" width="80" height="80" as="geometry" />
        </mxCell>
        <mxCell id="SzUF8fcwHkSjXErmm0Mm-5" value="" style="edgeStyle=none;curved=1;rounded=0;orthogonalLoop=1;jettySize=auto;html=1;fontSize=12;startSize=8;endSize=8;" edge="1" parent="1" source="SzUF8fcwHkSjXErmm0Mm-2" target="SzUF8fcwHkSjXErmm0Mm-4">
          <mxGeometry relative="1" as="geometry" />
        </mxCell>
        <mxCell id="SzUF8fcwHkSjXErmm0Mm-2" value="Leer numero1, numero2" style="shape=parallelogram;perimeter=parallelogramPerimeter;whiteSpace=wrap;html=1;fixedSize=1;" vertex="1" parent="1">
          <mxGeometry x="137" y="282" width="120" height="60" as="geometry" />
        </mxCell>
        <mxCell id="SzUF8fcwHkSjXErmm0Mm-11" style="edgeStyle=orthogonalEdgeStyle;rounded=0;orthogonalLoop=1;jettySize=auto;html=1;exitX=0;exitY=0.5;exitDx=0;exitDy=0;entryX=0.5;entryY=0;entryDx=0;entryDy=0;fontSize=12;startSize=8;endSize=8;" edge="1" parent="1" source="SzUF8fcwHkSjXErmm0Mm-4" target="SzUF8fcwHkSjXErmm0Mm-10">
          <mxGeometry relative="1" as="geometry" />
        </mxCell>
        <mxCell id="SzUF8fcwHkSjXErmm0Mm-4" value="numero2 == 0&amp;nbsp;" style="rhombus;whiteSpace=wrap;html=1;" vertex="1" parent="1">
          <mxGeometry x="132" y="459" width="121" height="80" as="geometry" />
        </mxCell>
        <mxCell id="SzUF8fcwHkSjXErmm0Mm-6" value="NO" style="text;html=1;align=center;verticalAlign=middle;whiteSpace=wrap;rounded=0;fontSize=16;" vertex="1" parent="1">
          <mxGeometry x="267" y="453" width="60" height="30" as="geometry" />
        </mxCell>
        <mxCell id="SzUF8fcwHkSjXErmm0Mm-7" value="SI" style="text;html=1;align=center;verticalAlign=middle;whiteSpace=wrap;rounded=0;fontSize=16;" vertex="1" parent="1">
          <mxGeometry x="58" y="459" width="60" height="30" as="geometry" />
        </mxCell>
        <mxCell id="SzUF8fcwHkSjXErmm0Mm-19" style="edgeStyle=orthogonalEdgeStyle;rounded=0;orthogonalLoop=1;jettySize=auto;html=1;fontSize=12;startSize=8;endSize=8;exitX=0.5;exitY=1;exitDx=0;exitDy=0;" edge="1" parent="1" source="SzUF8fcwHkSjXErmm0Mm-10" target="SzUF8fcwHkSjXErmm0Mm-17">
          <mxGeometry relative="1" as="geometry">
            <Array as="points">
              <mxPoint x="43" y="827" />
            </Array>
          </mxGeometry>
        </mxCell>
        <mxCell id="SzUF8fcwHkSjXErmm0Mm-10" value="Mostrar&amp;nbsp;&lt;div&gt;&quot;error division entre cero&quot;&lt;/div&gt;" style="shape=parallelogram;perimeter=parallelogramPerimeter;whiteSpace=wrap;html=1;fixedSize=1;" vertex="1" parent="1">
          <mxGeometry x="-43" y="532" width="172" height="60" as="geometry" />
        </mxCell>
        <mxCell id="SzUF8fcwHkSjXErmm0Mm-16" style="edgeStyle=none;curved=1;rounded=0;orthogonalLoop=1;jettySize=auto;html=1;fontSize=12;startSize=8;endSize=8;" edge="1" parent="1" source="SzUF8fcwHkSjXErmm0Mm-12" target="SzUF8fcwHkSjXErmm0Mm-14">
          <mxGeometry relative="1" as="geometry" />
        </mxCell>
        <mxCell id="SzUF8fcwHkSjXErmm0Mm-12" value="resultado = numero1/numero2" style="shape=parallelogram;perimeter=parallelogramPerimeter;whiteSpace=wrap;html=1;fixedSize=1;" vertex="1" parent="1">
          <mxGeometry x="257" y="539" width="143" height="60" as="geometry" />
        </mxCell>
        <mxCell id="SzUF8fcwHkSjXErmm0Mm-13" style="edgeStyle=orthogonalEdgeStyle;rounded=0;orthogonalLoop=1;jettySize=auto;html=1;entryX=0.5;entryY=0;entryDx=0;entryDy=0;fontSize=12;startSize=8;endSize=8;" edge="1" parent="1" target="SzUF8fcwHkSjXErmm0Mm-12">
          <mxGeometry relative="1" as="geometry">
            <mxPoint x="255" y="498" as="sourcePoint" />
            <mxPoint x="272" y="509" as="targetPoint" />
          </mxGeometry>
        </mxCell>
        <mxCell id="SzUF8fcwHkSjXErmm0Mm-18" style="edgeStyle=orthogonalEdgeStyle;rounded=0;orthogonalLoop=1;jettySize=auto;html=1;entryX=1;entryY=0.5;entryDx=0;entryDy=0;fontSize=12;startSize=8;endSize=8;exitX=0.5;exitY=1;exitDx=0;exitDy=0;" edge="1" parent="1" source="SzUF8fcwHkSjXErmm0Mm-14" target="SzUF8fcwHkSjXErmm0Mm-17">
          <mxGeometry relative="1" as="geometry" />
        </mxCell>
        <mxCell id="SzUF8fcwHkSjXErmm0Mm-14" value="mostrar resultado" style="shape=parallelogram;perimeter=parallelogramPerimeter;whiteSpace=wrap;html=1;fixedSize=1;" vertex="1" parent="1">
          <mxGeometry x="255" y="675" width="143" height="60" as="geometry" />
        </mxCell>
        <mxCell id="SzUF8fcwHkSjXErmm0Mm-17" value="fin" style="ellipse;whiteSpace=wrap;html=1;aspect=fixed;" vertex="1" parent="1">
          <mxGeometry x="141" y="787" width="80" height="80" as="geometry" />
        </mxCell>
      </root>
    </mxGraphModel>
  </diagram>
</mxfile>
